PathFileType	4	(X/Y/Z)	47_1_12_p1_0-325_filt_butterworth.trc
DataRate	CameraRate	NumFrames	NumMarkers	Units	OrigDataRate	OrigDataStartFrame	OrigNumFrames
59.0	59.0	5	27	m	59.0	121	325
Frame#	Time	RHip			RKnee			RAnkle			RBigToe			RSmallToe			RHeel			LHip			LKnee			LAnkle			LBigToe			LSmallToe			LHeel			Neck			Head			Nose			RShoulder			RElbow			RWrist			RThumb			RIndex			RPinky			LShoulder			LElbow			LWrist			LThumb			LIndex			LPinky			
		X1	Y1	Z1	X2	Y2	Z2	X3	Y3	Z3	X4	Y4	Z4	X5	Y5	Z5	X6	Y6	Z6	X7	Y7	Z7	X8	Y8	Z8	X9	Y9	Z9	X10	Y10	Z10	X11	Y11	Z11	X12	Y12	Z12	X13	Y13	Z13	X14	Y14	Z14	X15	Y15	Z15	X16	Y16	Z16	X17	Y17	Z17	X18	Y18	Z18	X19	Y19	Z19	X20	Y20	Z20	X21	Y21	Z21	X22	Y22	Z22	X23	Y23	Z23	X24	Y24	Z24	X25	Y25	Z25	X26	Y26	Z26	X27	Y27	Z27	
121	2.0508474576271185	0.3728676672234893	0.390442093088001	-0.2274423033730746	0.3509760650636416	0.6583919210444539	0.15140543225776643	0.29586188068807334	0.9130333796294514	0.5475662716649509	0.3530321957148411	0.6747942758793434	0.6591086266329802	0.41548867929088934	0.7226408388416368	0.6393344516044299	0.2605226067415	0.9766879223534256	0.5665504206118519	0.16512528666382473	0.3541974733962916	-0.19203363459354833	0.14117424825782626	0.5964564171542032	0.19951400874611863	0.12967456910166575	0.8079508734510167	0.5398750920240203	0.20998042699774738	0.6458030463029133	0.6684220816695912	0.13878422935314186	0.6853291512519233	0.6651482983612906	0.12971342040445485	0.8882950015531732	0.5749779137115844	0.30937650144525664	0.0696766871816844	-0.6837722450942694	0.31762627980425684	-0.13366051544351806	-0.8406955294508129	0.3100545595415917	-0.09922904129252266	-0.7106157196990501	0.44246930117468	0.15995889072825045	-0.642663293112748	0.4687367592940158	0.2567313028070669	-0.39165471877360825	0.3874984646922362	0.24709945286970125	-0.15451138965213618	0.30384798274709096	0.26196071248140146	-0.046332506996520736	0.29548241370961936	0.27737045119194714	-0.03687680743847262	0.2988101829650915	0.27594798153881395	-0.040677634450899336	0.14770476943949576	0.1019602659057281	-0.6201637679335728	0.13328885086275935	0.17198083885014065	-0.35324506065511996	0.24807097524869734	0.20491947682341705	-0.1441941723768271	0.3388088405663978	0.22978538534828732	-0.08093849525634614	0.34271241576049166	0.24878377925513415	-0.0437300330727761	0.29527661776597436	0.2719660952966884	-0.04261099405542886
122	2.067796610169492	0.37286234162214227	0.3904514616498832	-0.2274333493554986	0.35097342270871634	0.6586013047333628	0.15137763605719604	0.2952912167822294	0.9127885730490419	0.547652041875079	0.3530165065422686	0.6748665984014335	0.659145290149333	0.41547940728606014	0.722635443271148	0.6393605418505618	0.2606800954549508	0.9741159407465831	0.5665167853622812	0.16376482569002765	0.354121099462757	-0.19161704338503532	0.14094238774032325	0.5968197748932507	0.2004704852153714	0.12935436237000242	0.8076002934822804	0.5399506693190732	0.21011129331757725	0.6460572047619371	0.6690330407536098	0.13877384043086807	0.6853350198944531	0.6650882073083988	0.1299269225217197	0.8879646954177975	0.5748527389745081	0.3073432435957848	0.07225479379811392	-0.6852341367796788	0.3176569872304876	-0.1336635391746266	-0.8407097432361336	0.3100541532550345	-0.09924404179005272	-0.7106001662287559	0.44156320498568424	0.15822918755205298	-0.6418988819655489	0.4679294061316309	0.2578705255398641	-0.39166188963650705	0.38764548513294295	0.2468218630954221	-0.15456418911518474	0.30386858913462744	0.2619994621058303	-0.04636960862816647	0.2958295631165934	0.27765702029718287	-0.036957722603041296	0.29955449358330405	0.2747205041313754	-0.041594842697081504	0.1479140197787517	0.10169514066952103	-0.6202058887145117	0.13004468724963064	0.17508071766198013	-0.35350460303127185	0.24811245087133857	0.20479991697803013	-0.14413475863387756	0.33889158022677446	0.2298301582044841	-0.08059503925103466	0.34349713501855933	0.2477204135284452	-0.04342790381782659	0.2953125528835279	0.2718542725002279	-0.04258057098252787
123	2.0847457627118646	0.37285316418245523	0.39046389036782087	-0.22742388150198095	0.3509715236466469	0.6589901561062328	0.15132865447581909	0.2954151590402781	0.9126956922835989	0.5476317118633031	0.3529769346419207	0.6749162979305519	0.65919605978528	0.4154543343836687	0.7226657092405646	0.6393877775530032	0.2608406324388324	0.9727734171633234	0.5665012945945296	0.16243117287591874	0.35395494976466546	-0.19104688480167065	0.14096218995428395	0.596778921525972	0.2005094036905585	0.12937861491579847	0.8076234295043702	0.5399284000114237	0.20886267501823844	0.6459632210578317	0.6694038481541895	0.13874900130679454	0.6853423347241896	0.6650110373950682	0.13098401941136495	0.88889429759485	0.5747214990574961	0.30467452532892314	0.07565797031333193	-0.6862893182867402	0.3176879519404413	-0.13390869809877848	-0.8406083622834977	0.31006021467906614	-0.0993041748220135	-0.7105758297674596	0.4403060179530819	0.15450455913168679	-0.6403206524691517	0.46614429215735165	0.2605138628352634	-0.391924471278752	0.3875568719790533	0.2467136252345309	-0.15482771886566746	0.30386704707929274	0.26205290304031337	-0.04638905976071264	0.2958070803866743	0.2778251197288734	-0.03698639322186194	0.29951296556011753	0.2743027582628771	-0.043058955859548914	0.1479263907554259	0.10163097495006888	-0.62020220790848	0.12789518998895666	0.17739386956786513	-0.35422375098502246	0.24815899512700518	0.20470295602560085	-0.14408245175689854	0.338927628211468	0.22983466899571656	-0.08061801397948937	0.3433696137533243	0.2474713806129111	-0.043204913255705524	0.29532987334735605	0.27180900242319317	-0.04257947762780754
124	2.101694915254237	0.37284484320861777	0.3904774186854215	-0.22742272716188128	0.35098271383406154	0.6590408614150852	0.15132715037517208	0.2956359174650358	0.912609897865089	0.5475993971912304	0.35294814369634286	0.6748617185700656	0.6592275480967946	0.4154280855296761	0.7227226347064024	0.6394038544726012	0.2609199692614342	0.9724870691950658	0.566496200426539	0.1617637630351808	0.35373633799720267	-0.1907572167756804	0.14130296123514235	0.5963374975944913	0.19970183858917454	0.12948517293426098	0.807750006400411	0.5398798998553591	0.20784841332965398	0.6458545245952146	0.6695168554479144	0.13872994046044934	0.6853317750548804	0.6649328141947779	0.13190117750184246	0.8901195792040033	0.5747243711575751	0.3026595147689064	0.07820037589801249	-0.6867178359069595	0.31769429886163164	-0.13406442631114449	-0.8405541376688055	0.3100471412424079	-0.09939042805209547	-0.710723945465868	0.4393315268831207	0.15002345436115327	-0.638418159985579	0.4636734079223315	0.2642772960774068	-0.3927566708069688	0.3865851652655644	0.24776726724033948	-0.1552386110491242	0.3038571246314708	0.2620921027492057	-0.04641349771413097	0.2957166131673852	0.27786531584410884	-0.03700022331172074	0.29964503674544496	0.2739557885172816	-0.04421203396467285	0.14707482776761882	0.10257993189725098	-0.6202134193692512	0.12717111278437387	0.17820301437851244	-0.35495137692090994	0.24821584640074684	0.20463179486957722	-0.14407741018832645	0.3389131364951448	0.2299038609483647	-0.08070228378567623	0.342822111024157	0.24722733236417554	-0.04304062132557141	0.2953492814952413	0.2717758823757111	-0.042588682338147096
125	2.1186440677966103	0.3728374632613187	0.39048839374825406	-0.2274295611750234	0.3510322722321903	0.657534268725241	0.15152487365656653	0.29573678426601585	0.912574232076499	0.547587075930068	0.3529423589978943	0.6747030842603567	0.6592364916854062	0.4154070555180878	0.7228361998247786	0.6394043798188811	0.26091875588086344	0.9725974809505843	0.5665048597002109	0.1616566577487673	0.353608654451985	-0.19116601278376397	0.14181018597495634	0.5957857284606357	0.19860135281444452	0.12954662810994916	0.8078472692935746	0.5398470658470635	0.2075108783013242	0.6458585034537087	0.6695035357548037	0.1387052321495447	0.6853521496921315	0.6649014320036226	0.13182178846798823	0.8906664727435774	0.5749200261943522	0.30185626765567136	0.07908195073044134	-0.687018822341543	0.3176743919077671	-0.13410493283142833	-0.8405613526086984	0.3099823904108081	-0.09933731344019865	-0.7113809735662607	0.4388864727538476	0.1468844255720103	-0.6370884675798859	0.4617430556263633	0.26726313814455926	-0.39392349609947597	0.3842921355311941	0.2509330681758715	-0.155404007156139	0.30386605456451743	0.26211537856769707	-0.04649902798892002	0.29568222185560933	0.2778399034801326	-0.037010245996840004	0.30042414279490703	0.27371019909075045	-0.044664609081618914	0.14485411165653836	0.10518686120927108	-0.6203106224558614	0.12722889681393884	0.1782233035761086	-0.35528237688716646	0.24826947277527336	0.20457072425001216	-0.14415875240114823	0.33884564615141616	0.23011668570896426	-0.08046792017375304	0.34221204319292675	0.2467297727816961	-0.04332427007266851	0.29539507068225024	0.27172796131591775	-0.04259887417433663
